<svg width="1059" height="992" viewBox="0 0 1059 992" fill="none" xmlns="http://www.w3.org/2000/svg">
<path d="M879.786 688.077C800.052 434.379 1295.37 485.118 908.78 233.836C732.399 105.779 691.324 190.345 604.342 59.8718C517.36 -70.6016 244.332 40.5424 222.586 134.773C200.841 229.004 -6.95012 221.755 0.298406 429.546C7.54693 637.337 210.506 543.107 198.425 777.475C186.344 1011.84 568.099 1040.84 679.243 927.278C790.387 813.718 959.52 941.775 879.786 688.077Z" fill="white"/>
<path fill-rule="evenodd" clip-rule="evenodd" d="M219.364 974.277C223.554 980.641 231.794 979.662 235.332 974.733C275.617 984.118 316.917 980.419 357.762 978.118C472.861 973.435 588.61 988.115 703.244 972.758C715.404 970.327 729.558 971.489 739.508 963.055C755.422 944.407 751.995 916.094 749.46 893.381C729.139 765.347 700.249 636.138 685.838 507.28C685.033 495.006 690.092 479.755 694.627 468.217C695.747 466.07 702.826 463.967 706.5 461.491C717.775 453.398 715.947 438.897 706.173 430.388C674.528 408.083 630.475 415.877 596.906 424.106C590.473 399.945 583.241 384.054 570.992 382.481C547.678 379.485 491.125 370.332 473.704 382.481C465.371 388.292 460.021 408.771 454.022 418.747C410.273 417.97 321.479 359.44 303.224 425.349C288.392 426.373 273.702 439.321 276.539 454.859C257.304 471.855 272.476 497.34 272.209 518.495C269.681 563.379 245.392 603.521 235.287 646.88C212.188 730.975 186.045 883.943 214.693 966.028C214.077 965.706 212.73 966.191 213.603 966.873C216.847 967.788 217.268 971.874 219.364 974.277Z" fill="white"/>
<path fill-rule="evenodd" clip-rule="evenodd" d="M722.354 952.89C716.981 909.757 713.245 857.688 713.202 814.194C713.198 810.098 719.554 810.106 719.558 814.194C719.601 857.688 723.337 909.757 728.71 952.89C729.215 956.945 722.853 956.895 722.354 952.89M682.551 685.447C674.248 690.524 663.345 687.003 655.129 683.641C651.388 682.11 653.035 675.964 656.818 677.512C663.071 680.071 672.211 683.838 678.811 680.27C685.398 676.708 685.695 666.909 685.744 660.443C685.775 656.349 692.13 656.352 692.1 660.443C692.034 669.24 690.857 680.366 682.551 685.447M667.183 882.831C658.807 878.538 651.659 872.669 645.907 865.219C643.407 861.98 648.931 858.819 651.396 862.011C656.458 868.568 663.054 873.583 670.391 877.344C674.036 879.213 670.816 884.694 667.183 882.831M626.922 661.023C612.549 718.613 602.904 777.233 598.177 836.403C597.216 848.415 596.54 860.411 596.159 872.415C595.778 875.545 595.412 878.683 595.071 881.821C593.776 893.689 592.783 905.749 592.87 917.698C592.91 923.06 593.076 928.399 593.442 933.745C592.806 931.957 592.218 930.162 591.646 928.375C590.479 924.713 589.708 920.915 588.516 917.277C587.531 914.266 586.26 911.382 585.076 908.466V908.458C585.434 896.518 584.623 884.466 584.21 872.582C583.678 857.185 583.018 841.805 582.677 826.401C581.993 795.593 582.335 764.761 583.447 733.969C585.68 671.923 591.321 610.172 597.009 548.38C598.59 531.196 600.29 514.02 601.466 496.804C602.65 479.407 603.127 461.977 603.262 444.532C603.27 443.276 601.363 442.943 601.013 444.158C600.704 440.019 600.155 435.888 599.242 431.892C612.947 440.63 627.398 448.185 641.564 456.13C649.024 460.316 656.453 464.575 664.143 468.324C668.37 470.389 672.636 472.289 676.99 474.084C681.503 475.943 685.817 478.501 690.782 477.205C691.211 477.095 691.616 476.936 692.006 476.73C691.442 477.801 690.878 478.867 690.337 479.948C688.462 483.673 686.675 487.415 684.943 491.188C684.482 491.53 684.077 491.999 683.759 492.61C682.917 494.255 682.099 495.915 681.304 497.599C681.145 497.448 680.986 497.298 680.827 497.147C680.16 496.519 679.238 497.464 679.826 498.148C680.096 498.457 680.359 498.759 680.621 499.069C675.441 510.215 671.23 521.933 666.892 533.374C661.561 547.434 656.508 561.599 651.749 575.859C642.366 603.911 634.088 632.328 626.922 661.023M421.444 870.02C394.955 884.204 370.202 901.156 346.395 919.44C343.149 921.932 339.987 916.408 343.186 913.952C366.994 895.669 391.748 878.716 418.237 864.531C421.845 862.6 425.052 868.087 421.444 870.02M331.977 703.888C330.6 703.786 329.262 702.988 328.913 701.556C326.767 692.771 325.086 683.201 327.082 674.241C327.972 670.244 334.098 671.945 333.211 675.93C331.637 682.996 332.887 690.633 334.522 697.679C357.625 698.69 380.418 690.401 402.521 684.834C406.496 683.833 408.174 689.964 404.211 690.962C380.764 696.866 356.511 705.705 331.977 703.888M791.904 938.218C791.928 938.162 791.952 938.099 791.968 938.043C793.326 933.928 793.358 929.145 793.509 924.832C793.771 917.157 793.493 909.467 792.802 901.817C791.34 885.714 788.194 869.873 784.436 854.166C776.992 823.056 766.473 792.788 760.76 761.257C749.55 699.363 752.212 634.918 730.212 575.217C721.068 550.398 708.007 526.541 690.258 506.823C691.553 502.882 692.816 498.934 694.048 494.97C696.201 488.074 698.401 480.956 699.728 473.854C699.76 473.663 699.8 473.464 699.823 473.266C707.379 470.009 714.251 463.868 715.427 455.701C715.936 452.174 715.348 448.265 713.822 444.857C716.937 441.981 718.939 438.247 718.462 433.242C717.572 423.82 706.569 421.396 698.91 419.554C690.202 417.465 681.169 416.885 672.263 417.87C667.766 418.362 663.317 419.188 658.971 420.428C655.197 421.5 651.09 422.605 648.063 425.194C647.705 425.496 647.999 426.084 648.428 426.084C654.554 426.061 660.655 423.812 666.844 423.517C673.327 423.216 679.794 423.749 686.15 425.083C692.363 426.386 698.56 428.293 704.209 431.24C705.798 432.074 708.126 432.638 706.259 434.323C704.892 435.554 702.207 435.658 700.451 435.84C696.566 436.245 693.213 438.517 692.721 442.664C692.284 446.326 694.469 450.473 698.362 451.3C698.576 451.348 698.775 451.403 698.949 451.474C699.053 451.673 699.212 451.84 699.196 451.57C699.196 451.57 699.204 451.562 699.204 451.57C699.299 452.15 699.331 452.379 699.331 452.42C699.307 452.372 699.267 452.174 699.235 452.015C699.259 452.158 699.307 452.388 699.371 452.73C699.283 452.356 699.355 453.271 699.283 453.413C697.218 457.226 691.108 458.299 687.549 459.943C686.857 460.26 686.262 460.634 685.753 461.055C684.911 460.761 684.053 460.467 683.187 460.142C678.921 458.545 674.662 456.996 670.34 455.557C661.998 452.769 653.553 450.283 645.211 447.486C629.416 442.195 614.146 435.514 598.646 429.461C598.153 427.633 597.581 425.846 596.906 424.106C596.771 423.741 596.119 423.621 596.048 424.106C595.809 425.647 595.619 427.196 595.46 428.754C595.396 428.897 595.38 429.055 595.412 429.206C594.514 438.263 594.753 447.534 594.292 456.583C593.72 467.864 592.123 479.065 591.67 490.354V490.561C590.002 500.197 588.492 509.866 587.126 519.566C585.592 519.089 583.837 519.184 582.041 520.146C569.345 526.922 555.076 530.696 540.72 531.538C533.49 531.958 526.332 531.721 519.142 530.886C514.415 530.346 509.759 529.361 505.095 528.424C507.55 518.136 510.188 507.895 513.167 497.759C515.622 489.425 518.355 481.131 521.732 473.115C525.14 465.02 529.383 457.29 533.331 449.441C535.151 445.81 533.005 440.257 528.278 440.638C526.88 440.75 525.482 440.837 524.075 440.9C510.394 441.553 496.165 440.027 482.659 438.668C467.286 437.111 451.706 435.497 436.468 432.964C435.339 432.781 434.879 434.315 435.991 434.688C443.221 437.119 450.363 439.867 457.776 441.687C465.403 443.57 473.077 445.286 480.816 446.628C488.228 447.908 495.673 448.98 503.141 449.886C508.011 450.481 512.937 450.783 517.839 451.18C511.237 461.731 506.684 473.63 502.72 485.348C497.627 500.396 493.885 515.879 490.222 531.331C482.389 564.451 475.93 597.905 470.877 631.565C467.254 655.7 464.322 679.931 462.122 704.225C461.47 696.844 460.676 689.488 459.778 682.139C456.775 657.741 452.389 633.504 446.526 609.631C447.05 608.709 447.296 607.605 447.122 606.533C446.065 599.971 443.284 594.259 440.845 588.173C438.422 579.673 435.808 571.228 432.996 562.847C429.802 551.43 426.219 540.189 421.635 529.21C418.131 520.845 414.135 512.693 409.686 504.789C404.37 493.738 398.531 482.927 392.119 472.591C391.786 471.629 391.246 470.732 390.475 469.977C389.307 468.134 388.123 466.314 386.916 464.511C386.129 463.335 383.873 464.05 384.469 465.544C384.747 466.244 385.025 466.942 385.311 467.634C359.196 461.103 333.59 471.089 308.714 478.461C302.438 480.328 296.098 482.013 289.663 483.228C284.602 484.181 278.707 485.341 273.662 484.292C270.285 483.593 268.792 482.06 270.436 478.453C272.136 474.72 276.776 472.265 280.804 470.613C282.322 470.287 283.815 469.707 285.253 468.833C288.606 466.799 290.076 462.557 288.495 458.942C287.057 455.677 282.862 452.865 279.152 454.358C278.619 454.573 278.095 454.779 277.571 454.986C277.515 454.906 277.451 454.795 277.396 454.636C276.864 453.182 276.633 454.923 276.864 452.841C277.245 449.441 280.844 446.35 283.307 444.404C289.432 439.55 298.283 435.959 306.188 437.794C306.784 437.929 307.38 438.096 307.968 438.303C316.111 441.123 320.076 429.397 313.569 425.028C313.172 424.765 312.671 424.432 312.123 424.043C309.414 422.16 305.449 418.99 306.53 416.131C307.864 412.579 315.738 410.537 318.717 409.33C329.49 404.96 341.129 402.481 352.745 401.973C364.432 401.465 376.27 402.752 387.543 405.905C393.073 407.447 398.753 409.79 403.981 412.159C408.677 414.279 418.894 417.083 419.545 423.026C419.688 424.337 421.555 424.781 421.96 423.351C425.162 411.943 412.736 404.579 404.537 399.868C399.159 396.769 393.057 394.839 387.154 392.94C381.497 391.113 375.721 389.77 369.826 388.959C357.17 387.228 344.363 387.451 331.81 389.882C320.377 392.099 307.658 395.88 298.418 403.236C292.745 407.749 290.179 414.93 292.459 421.937C292.539 422.168 292.618 422.406 292.698 422.636C282.489 424.464 272.828 430.311 266.368 438.462C261.061 445.159 258.281 454.477 263.032 462.272C262.833 462.414 262.634 462.565 262.444 462.724C257.915 466.346 254.546 471.606 253.545 477.357C251.583 488.702 258.439 496.638 268.029 499.673C265.653 501.993 263.373 504.455 261.141 506.918C256.143 512.44 251.369 518.453 247.158 524.586C238.625 537.011 231.332 550.541 224.952 564.173C211.835 592.169 203.564 622.302 199.179 652.856C196.97 668.252 195.492 683.728 194.928 699.267C194.277 716.983 194.936 734.707 194.595 752.431C194.261 769.464 192.378 786.083 188.572 802.688C184.926 818.568 180.064 834.131 175.662 849.805C170.697 867.457 165.231 885.03 162.609 903.231C161.282 912.493 160.329 921.781 161.067 931.147C161.814 940.689 165.278 948.848 168.472 957.721C169.282 959.986 171.753 960.899 173.731 960.415C174.176 964.665 175.781 968.812 178.173 972.403C183.249 980.013 191.067 984.867 200.021 986.631C210.111 988.609 220.511 988.14 230.728 987.775C241.811 987.378 252.902 987.02 263.985 986.559C275.588 986.08 287.191 985.588 298.795 985.093C298.411 973.201 297.953 961.313 297.436 949.427C294.639 885.169 290.233 820.874 290.116 756.533C289.892 756.401 289.671 756.244 289.459 756.039C284.236 750.991 277.823 747.675 271.797 743.723C268.387 741.487 271.575 735.986 275.005 738.236C280.085 741.567 285.379 744.527 290.139 748.26C290.167 741.562 290.226 734.865 290.359 728.166C290.44 724.076 296.796 724.076 296.715 728.166C296.316 748.354 296.449 768.546 296.906 788.731C298.385 854.143 303.032 919.434 305.149 984.821C336.293 983.491 367.438 982.15 398.587 981.013C423.923 980.093 449.259 979.171 474.595 978.25C479.91 978.06 482.897 974.261 483.549 969.296C484.741 960.16 482.5 950.714 477.431 943.032C476.907 942.238 476.287 941.531 475.596 940.927C475.715 935.453 475.938 929.971 475.628 924.498C475.167 916.141 474.476 907.783 473.872 899.434C472.648 882.711 471.703 865.956 471.33 849.193C470.567 815.668 471.123 782.111 473.022 748.634C476.827 681.75 485.686 615.295 500.185 549.873C501.242 545.107 502.307 540.34 503.411 535.581C514.685 541.436 528.397 543.541 540.72 543.621C556.165 543.716 571.268 540.165 585.219 533.707C585.124 534.43 585.028 535.145 584.941 535.867C581.048 566.85 577.767 597.896 574.907 628.983C569.202 690.957 565.706 753.186 566.191 815.437C566.326 832.685 566.986 849.877 567.804 867.1C568.638 884.617 569.917 903.128 574.795 920.025C575.336 921.892 576.535 922.965 577.918 923.354C577.989 925.817 578.148 928.287 578.323 930.718C578.887 938.623 580.5 955.044 583.948 962.209C587.308 969.201 592.91 974.746 600.052 977.798C609.125 981.666 618.937 980.554 628.518 979.934C670.181 977.217 711.812 973.578 753.451 970.385C759.251 969.94 765.051 969.503 770.842 969.05C775.999 968.653 781.33 968.302 785.906 965.626C791.11 962.583 795.17 947.64 793.374 941.459C793.048 940.331 792.556 939.219 791.904 938.218" fill="black"/>
<path fill-rule="evenodd" clip-rule="evenodd" d="M619.029 191.471C613.884 172.922 614.62 170.916 606.951 153.199C581.523 101.728 411.595 118.962 394.252 170.341C384.844 198.215 387.054 237.47 384.605 261.64C383.855 274.455 383.119 287.271 382.357 300.084C382.093 304.51 381.827 308.935 381.555 313.359C381.027 321.973 380.513 330.587 380.033 339.203C376.838 365.747 390.167 368.447 413.03 367.661C419.075 382.256 428.864 394.438 440.957 404.351C438.038 412.296 448.623 416.41 454.332 419.587C485.396 436.945 523.554 447.534 557.962 437.773C568.072 434.905 609.823 424.972 622.66 394.223C628.964 379.124 641.78 300.927 624.88 230.586L619.029 191.471Z" fill="white"/>
<path fill-rule="evenodd" clip-rule="evenodd" d="M510.413 70.4843C515.218 69.6338 520.59 69.9612 523.345 74.6827C523.941 75.7005 524.319 76.727 524.501 77.7383C537.629 74.7846 551.259 74.4645 564.671 76.3996C568.669 76.9736 570.072 82.3063 568.313 85.3552C568.131 85.6681 567.95 85.9729 567.753 86.2719C571.955 86.6131 576.15 87.3406 580.308 88.4617C583.266 89.2619 586.029 93.0959 584.714 96.2387C584.597 96.5152 584.473 96.7916 584.35 97.0674C590.885 98.1666 597.129 100.735 602.588 104.881C603.243 105.369 603.846 106.002 604.347 106.722C616.553 105.346 629.122 107.872 640.018 113.764C643.071 115.415 644.547 120.174 642.475 123.142C641.828 124.066 641.152 124.946 640.425 125.797C645.165 127.551 649.359 130.387 652.187 135.008C655.262 140.02 656.207 146.473 654.557 151.987C658.003 155.501 659.806 160.884 658.577 166.282C657.458 171.208 654.441 174.336 650.573 176.213C651.359 178.614 650.726 181.342 648.945 183.197C646.212 186.041 642.941 188.224 639.379 189.658C639.371 190.582 639.139 191.535 638.674 192.422C635.46 198.591 628.533 202.687 621.489 203.306C623.858 213.265 625.807 223.349 627.697 233.374C631.056 251.205 633.658 269.21 635.242 287.288L635.435 289.524C638.016 320.114 638.616 352.161 632.4 382.338C628.438 401.551 616.429 417.745 600.407 428.716C584.117 439.875 564.213 445.427 544.629 446.306C534.641 446.751 524.559 445.906 514.775 443.856C510.129 442.881 505.644 441.498 501.231 439.738C496.484 437.839 492.574 435.038 488.561 431.888C486.474 430.251 487.667 426.388 490.138 425.9C491.905 425.544 493.649 425.159 495.409 424.839C497.022 424.54 498.782 426.155 498.447 427.647L501.851 428.524C502.985 428.817 504.119 429.112 505.25 429.416L506.945 429.879C511.765 431.226 516.693 432.36 521.636 433.168C531.697 434.805 542.165 434.842 552.277 433.569C569.28 431.437 586.647 425.37 599.87 414.188C606.354 408.702 611.755 402.206 615.673 394.662C620.653 385.08 622.157 374.407 623.408 363.808C627.021 333.158 625.908 302.465 623.102 271.808C621.707 256.559 619.802 241.34 617.781 226.157C616.742 218.372 615.622 210.574 614.7 202.76C612.642 202.207 610.679 201.291 608.92 199.959C607.728 199.057 607.03 198.009 606.725 196.94C604.948 196.605 603.246 195.629 602.019 193.98L601.861 193.761C598.641 189.097 593.073 186.428 587.919 184.485C584.793 183.307 581.609 182.28 578.439 181.233C575.139 180.135 571.65 178.512 568.182 178.09C564.25 177.625 560.288 178.811 556.319 178.389C552.713 177.996 549.536 176.7 546.942 174.111C546.033 173.209 545.247 172.169 544.622 171.048C532.519 173.637 519.805 170.372 507.229 171.157C498.956 171.681 491.658 176.803 483.298 176.664C481.015 176.628 478.805 175.828 477.199 174.424C469.312 175.93 461.293 178.824 453.879 181.313C446.551 183.772 439.5 187.082 432.259 189.767C432.252 189.774 432.252 189.774 432.252 189.781C431.307 192.844 428.487 194.168 425.484 193.63C415.663 191.877 407.391 185.678 397.832 183.408C395.2 193.004 392.372 202.476 390.439 212.261C388.483 222.134 387.109 232.137 386.201 242.162C385.285 252.223 384.848 262.386 384.827 272.484C384.819 277.635 384.95 282.8 385.125 287.95C385.266 292.266 386.088 297.722 384.53 301.872L384.39 302.224H384.383C384.194 302.829 383.344 303.192 382.864 302.632C379.934 299.227 379.237 293.807 378.422 289.529C377.434 284.335 376.801 279.09 376.293 273.829C375.275 263.273 375.049 252.762 375.587 242.162C376.641 221.297 379.985 199.26 387.124 179.538C384.928 179.741 383.947 176.504 383.802 174.678C383.524 171.009 384.098 167.114 384.72 163.434L385.371 159.624C385.988 156.027 386.642 152.525 387.865 149.027C390.803 140.63 395.026 132.745 400.289 125.579C411.026 110.963 425.907 99.8974 442.851 93.5179C443.912 93.1177 444.915 93.125 445.802 93.4298C461.221 85.1152 477.795 78.7131 494.631 74.1589C499.836 72.7548 505.106 71.4308 510.413 70.4843ZM382.37 305.054C389.37 300.661 403.815 299.511 407.718 308.874C407.878 309.252 407.427 309.587 407.093 309.499L406.138 309.258C402.468 308.348 399.298 307.825 395.535 309.333C392.227 310.657 389.014 312.729 386.826 315.581C381.654 322.326 381.093 331.487 381.575 339.668L381.599 340.063C382.05 347.242 383.889 355.987 390.904 359.537C394.459 361.334 398.304 361.203 402.164 361.174C406.562 361.145 411.055 361.625 415.257 362.979C417.605 363.735 418.709 366.849 416.761 368.675C416.114 369.279 415.438 369.846 414.726 370.355C416.856 372.626 418.949 374.925 420.978 377.347C424.416 381.457 428.072 385.429 431.889 389.19C435.582 392.821 439.493 396.334 443.709 399.346C448.143 402.504 453.45 404.723 457.288 408.593C459.789 411.111 459.36 414.624 457.288 417.17C452.145 423.498 443.391 416.846 438.473 413.104L437.879 412.652C432.768 408.782 427.913 404.606 423.776 399.688C419.56 394.668 415.911 389.329 413.214 383.341C411.629 379.82 410.619 376.496 410.073 373.019C401.234 376.86 390.09 375.637 382.166 370.232C371.647 363.058 368.696 349.891 368.659 337.872L368.66 337.16C368.738 325.477 371.805 311.685 382.37 305.054ZM402.312 321.987L402.637 321.991C406.53 322.075 410.001 323.479 413.308 325.412L413.65 325.614C416.863 327.527 421.472 329.062 423.173 332.642C424.19 334.802 424.118 337.276 422.344 339.065C419.131 342.31 414.282 341.772 410.807 339.239C408.212 337.341 406.504 334.497 403.96 332.575C399.176 328.953 391.631 329.157 386.652 332.292C386.346 332.489 386.049 332.118 386.186 331.827C389.244 325.565 395.304 321.963 402.312 321.987V321.987Z" fill="black"/>
<path fill-rule="evenodd" clip-rule="evenodd" d="M553.144 375.08C550.522 378.509 545.774 381.135 540.456 382.39C535.39 383.587 529.79 383.538 524.957 381.697L524.542 381.531C520.929 380.031 517.461 377.001 516.144 373.839C515.62 372.581 515.443 371.303 515.801 370.111C516.124 369.038 516.88 368.051 518.138 367.203C518.534 366.937 519.064 366.917 519.569 367.006C520.195 367.117 520.813 367.41 521.186 367.806C523.253 370.005 526.253 372.148 529.803 372.112C532.542 372.083 534.78 371.002 536.949 369.779L538.473 368.906C539.944 368.067 541.436 367.278 543.123 366.918C546.144 366.273 549.809 367.452 552.041 369.397C553.015 370.245 553.722 371.241 553.915 372.315C554.076 373.217 553.849 374.158 553.144 375.08ZM537.437 315.122C543.437 318.769 552.58 327.274 546.125 336.316C538.527 344.289 527.587 335.148 522.196 331.014C517.198 327.81 511.581 336.05 516.219 339.792C555.174 368.632 570.982 316.076 540.472 310.834C537.113 310.256 535.865 313.994 537.437 315.122ZM469.744 259.065L471.467 258.592L473.225 258.118L474.414 257.804C482.578 255.667 491.583 253.786 499.68 254.704C502.632 255.04 505.029 256.701 505.447 259.795C505.799 262.405 504.112 265.772 501.241 266.237C491.732 267.775 481.997 267.276 472.444 268.862C467.687 269.651 462.966 270.631 458.227 271.514C454.624 272.186 450.9 272.422 447.266 272.965L448.101 273.081C448.393 273.121 448.32 273.613 448.032 273.593C446.834 273.473 445.634 273.455 444.432 273.539L443.917 273.581C443.133 273.692 442.671 272.756 443.37 272.28C447.798 269.276 451.556 266.02 456.514 263.805C460.803 261.89 465.217 260.311 469.744 259.065ZM544.07 254.457C550.348 248.111 563.697 250.55 571.165 253.453C575.427 255.11 579.479 257.206 582.855 260.341L583.184 260.649L583.691 261.136C585.969 263.367 588.51 266.437 588.149 269.653C588.094 270.143 587.827 270.703 587.273 270.802C584.282 271.332 581.344 269.754 578.582 268.804L576.753 268.176C574.006 267.241 571.242 266.347 568.41 265.701C564.888 264.9 561.296 264.437 557.68 264.483C554.026 264.531 550.1 265.562 546.619 264.111C542.737 262.494 540.724 257.841 544.07 254.457ZM482.054 305.637C480.453 307.272 478.338 308.195 475.63 307.646C473.515 307.217 469.487 305.09 466.27 301.815C464.068 299.574 462.228 296.773 461.728 293.529C461.611 292.776 461.212 292.293 460.687 291.989C460.272 291.748 459.725 291.628 459.13 291.688C458.625 291.739 458.088 291.922 457.673 292.165C456.884 292.627 456.561 293.282 456.496 293.772C455.863 298.494 457.687 303.181 460.531 307.132C464.368 312.464 470.004 316.372 473.317 317.287C478.985 318.853 484.958 317.606 489.362 313.661C492.883 310.506 494.688 306.396 496.363 302.17L496.686 301.351C497.063 300.392 497.437 299.44 497.833 298.498C498.627 296.611 498.372 294.979 497.603 293.708C496.75 292.299 495.176 291.308 493.424 291.003C491.805 290.722 490.071 291.03 488.703 292.019C487.548 292.855 486.616 294.179 486.285 296.137C485.746 299.32 484.497 302.973 482.294 305.383L482.054 305.637ZM579.254 287.21C577.933 286.522 576.9 286.314 575.435 286.753C574.625 286.996 573.824 287.463 573.197 288.09C572.576 288.711 572.127 289.484 571.953 290.341C571.525 292.457 570.367 294.437 568.718 295.728C567.308 296.831 565.528 297.416 563.555 297.086C561.425 296.731 559.395 295.365 557.998 293.754C557.609 293.305 557.289 292.805 556.981 292.299L556.796 291.995C556.108 290.858 555.439 289.802 554.489 288.967C554.129 288.649 553.586 288.429 553.061 288.429C552.847 288.429 552.631 288.464 552.424 288.528C550.304 290.656 549.897 292.27 549.965 293.871C550.037 295.55 550.699 297.25 551.768 298.836C554.277 302.556 559.041 305.606 562.256 306.297C566.658 307.243 571.03 306.108 574.536 303.649C578.143 301.119 580.815 297.19 581.649 292.764C581.849 291.697 581.764 290.547 581.358 289.549C580.961 288.574 580.27 287.739 579.254 287.21Z" fill="black"/>
<path fill-rule="evenodd" clip-rule="evenodd" d="M606.16 318.381C596.515 328.351 580.413 331.212 567.581 325.865C534.63 312.092 550.758 269.136 576.17 257.6C579.345 256.809 583.585 254.931 587.451 254.505C587.801 254.333 588.562 254.83 589.484 254.36C617.505 257.49 623.886 301.004 606.16 318.381M499.882 320.933C489.064 335.287 468.952 339.715 452.519 333.042C420.057 320.253 431.571 282.161 453.781 267.228C500.698 249.591 520.072 294.466 499.882 320.933M429.51 289.128C429.48 289.114 429.45 289.107 429.419 289.092C429.59 289.017 429.762 288.941 429.933 288.864C429.877 289.01 429.817 289.154 429.763 289.299C429.679 289.241 429.605 289.173 429.51 289.128M628.493 273.612C625.845 273.618 622.019 274.053 619.826 275.891C614.419 257.649 594.461 240.767 577.104 253.077C563.436 257.475 553.293 267.227 547.529 280.193C537.135 274.008 520.792 276.649 511.779 284.828C505.876 265.316 491.349 258.483 474.058 257.475C455.186 254.382 436.375 272.718 430.506 287.427C425.625 286.872 418.333 285.318 413.742 288.331C383.945 280.514 331.85 276.204 325.792 280.547C321.475 282.204 319.106 292.398 325.136 292.948C330.39 292.201 324.522 285.479 329.819 284.745C358.04 282.995 385.436 288.681 413.358 291.067C415.851 294.421 423.906 295.543 428.203 294.195C421.435 319.148 436.045 336.123 457.936 341.208C491.832 348.998 521.323 318.664 512.459 287.112C522.727 282.002 534.538 282.221 545.724 284.913C527.032 353.73 637.823 350.643 620.519 278.25C632.034 283.98 634.535 274.768 628.493 273.612" fill="black"/>
</svg>
