<?xml version="1.0" encoding="utf-8"?>
<!-- Generator: Adobe Illustrator 16.0.0, SVG Export Plug-In . SVG Version: 6.00 Build 0)  -->
<!DOCTYPE svg PUBLIC "-//W3C//DTD SVG 1.1//EN" "http://www.w3.org/Graphics/SVG/1.1/DTD/svg11.dtd">
<!--suppress ALL -->
<svg version="1.1" id="Layer_1" xmlns="http://www.w3.org/2000/svg" xmlns:xlink="http://www.w3.org/1999/xlink" x="0px" y="0px"
	 width="546.063px" height="546.063px" viewBox="-5 -5 546.063 546.063" enable-background="new -5 -5 546.063 546.063"
	 xml:space="preserve">
<g>
	<path fill="none" stroke="#000000" stroke-width="30" stroke-miterlimit="10" d="M268.032,10C125.524,10,10,125.525,10,268.033
		c0,142.507,115.524,258.029,258.032,258.029c142.507,0,258.03-115.522,258.03-258.029C526.063,125.525,410.539,10,268.032,10"/>
	<path fill="none" stroke="#000000" stroke-width="30" stroke-miterlimit="10" d="M61.265,117.921c-1.056,0-2.111,0.021-3.166,0.063
		C27.825,160.266,10,212.065,10,268.031c0,142.509,115.524,258.031,258.032,258.031c83.188,0,157.172-39.379,204.356-100.502
		c-18.221-27.821-39.074-53.396-67.982-74.135c-43.169-30.414-94.188-16.68-140.299-29.434
		c-80.451-21.584-96.148-113.808-144.224-175.618C105.199,127.101,83.217,117.921,61.265,117.921"/>
	<path fill="none" stroke="#000000" stroke-width="30" stroke-miterlimit="10" d="M353.753,176.42
		c-32.317,0-58.925,24.622-79.834,51.386c-26.49,34.339-51.02,64.752-87.319,87.319c-37.282,23.547-76.526,31.395-117.733,42.188
		c-13.146,3.586-26.779,6.199-40.371,6.793c38.107,94.925,130.988,161.957,239.537,161.957c121.766,0,223.815-84.35,250.947-197.803
		c-23.02-24.867-42.539-53.088-63.557-81.813c-22.564-31.396-48.074-57.885-84.376-67.696
		C365.114,177.159,359.345,176.42,353.753,176.42"/>
</g>
</svg>
